<svg xmlns="http://www.w3.org/2000/svg" class="icon icon-tabler icon-tabler-database-import" width="250px" height="250px" viewBox="0 0 24 24" stroke-width="1.00" stroke="rgba(1, 1, 1, 1)" fill="none" stroke-linecap="round" stroke-linejoin="round"><rect x="0" y="0" width="100%" height="100%" stroke="none" stroke-width="0" fill="rgba(255, 255, 255, 1)" rx="5" ry="5"/><g transform="translate(4.80, 4.80) scale(0.6)"><path stroke="none" d="M0 0h24v24H0z" fill="none"/><ellipse cx="12" cy="6" rx="8" ry="3"/><path d="M4 6v8m5.009 .783c.924 .14 1.933 .217 2.991 .217c4.418 0 8 -1.343 8 -3v-6"/><path d="M11.252 20.987c.246 .009 .496 .013 .748 .013c4.418 0 8 -1.343 8 -3v-6m-18 7h7m-3 -3l3 3l-3 3"/></g>
  
    
  
  
</svg>